<svg width="92" height="26" viewBox="0 0 92 26" fill="none" xmlns="http://www.w3.org/2000/svg">
<g clip-path="url(#clip0_199_1659)">
<path d="M19.0138 26.0313C22.9063 26.0313 26.0618 22.8795 26.0618 18.9916C26.0618 15.1037 22.9063 11.9519 19.0138 11.9519C15.1213 11.9519 11.9658 15.1037 11.9658 18.9916C11.9658 22.8795 15.1213 26.0313 19.0138 26.0313Z" fill="#97CF26"/>
<path d="M5.79493 22.2767C7.61143 22.2767 9.084 20.8059 9.084 18.9915C9.084 17.1771 7.61143 15.7063 5.79493 15.7063C3.97843 15.7063 2.50586 17.1771 2.50586 18.9915C2.50586 20.8059 3.97843 22.2767 5.79493 22.2767Z" fill="#A169F7"/>
<path d="M19.0137 10.2935C21.5049 10.2935 23.5244 8.2764 23.5244 5.78813C23.5244 3.29986 21.5049 1.28271 19.0137 1.28271C16.5225 1.28271 14.5029 3.29986 14.5029 5.78813C14.5029 8.2764 16.5225 10.2935 19.0137 10.2935Z" fill="#FF6163"/>
<path d="M5.79503 11.5764C8.99553 11.5764 11.5901 8.98495 11.5901 5.78821C11.5901 2.59147 8.99553 0 5.79503 0C2.59452 0 0 2.59147 0 5.78821C0 8.98495 2.59452 11.5764 5.79503 11.5764Z" fill="#00AAFF"/>
<path d="M44.3237 22.2145H47.9887L41.1913 3.81738H38.5287L31.7939 22.2145H35.4589L36.7432 18.7103H43.0394L44.3237 22.2145L37.7769 15.9257L39.907 10.1375L42.0371 15.9257H37.7769L44.3237 22.2145Z" fill="black"/>
<path d="M57.0104 9.66797L53.6587 18.8039L50.3069 9.66797H46.8926L51.4973 22.2143H55.8514L60.4561 9.66797H57.0104Z" fill="black"/>
<path d="M61.8652 9.66821H65.2796V22.2145H61.8652V9.66821Z" fill="black"/>
<path d="M63.6195 8.22897C64.8479 8.22897 65.8436 7.23441 65.8436 6.00755C65.8436 4.7807 64.8479 3.78613 63.6195 3.78613C62.3912 3.78613 61.3955 4.7807 61.3955 6.00755C61.3955 7.23441 62.3912 8.22897 63.6195 8.22897Z" fill="black"/>
<path d="M77.4033 12.4211V9.66775H73.2998V6.19482H69.8854V9.66775H67.1602V12.4211H69.8854V17.8338C69.8854 20.6184 71.295 22.4644 74.8347 22.4644C76.2129 22.4644 77.4033 21.9638 77.4033 21.9638L76.996 19.2418C76.996 19.2418 76.3069 19.4295 75.4925 19.4295C74.4901 19.4295 73.2998 18.9915 73.2998 17.5835V12.4211H77.4033Z" fill="black"/>
<path d="M85.2963 19.3358C83.3855 19.3358 81.8193 17.834 81.8193 15.9567C81.8193 14.0794 83.3542 12.5776 85.265 12.5776C87.1758 12.5776 88.742 14.0794 88.742 15.9567C88.742 17.834 87.2071 19.3358 85.2963 19.3358ZM85.2963 9.32373C81.5687 9.32373 78.5615 12.2648 78.5615 15.8941C78.5615 19.5235 81.5687 22.4645 85.2963 22.4645C89.0239 22.4645 92.031 19.5235 92.031 15.8941C91.9997 12.2648 88.9926 9.32373 85.2963 9.32373Z" fill="black"/>
</g>
<defs>
<clipPath id="clip0_199_1659">
<rect width="92" height="26" fill="white"/>
</clipPath>
</defs>
</svg>
