<svg width="24" height="25" viewBox="0 0 24 25" fill="none" xmlns="http://www.w3.org/2000/svg">
<path d="M20.25 0.5H3.75C1.67893 0.5 0 2.17893 0 4.25V20.75C0 22.8211 1.67893 24.5 3.75 24.5H20.25C22.3211 24.5 24 22.8211 24 20.75V4.25C24 2.17893 22.3211 0.5 20.25 0.5Z" fill="#0088CC"/>
<path d="M6.07494 12.2812C9.29616 10.8778 11.4441 9.95256 12.5189 9.50553C15.5875 8.22919 16.2251 8.00747 16.6407 8.00007C16.7322 7.99854 16.9365 8.02119 17.0689 8.12862C17.1807 8.21932 17.2115 8.34186 17.2262 8.42786C17.2409 8.51386 17.2592 8.70977 17.2447 8.86285C17.0784 10.6101 16.3588 14.8501 15.9928 16.807C15.8379 17.6351 15.5329 17.9127 15.2376 17.9399C14.596 17.9989 14.1087 17.5158 13.4872 17.1084C12.5147 16.4709 11.9653 16.0741 11.0213 15.452C9.93032 14.7331 10.6375 14.3379 11.2593 13.6922C11.422 13.5232 14.2492 10.9516 14.3039 10.7183C14.3108 10.6891 14.3171 10.5804 14.2525 10.523C14.1879 10.4655 14.0926 10.4852 14.0238 10.5008C13.9262 10.5229 12.3726 11.5498 9.36292 13.5814C8.92193 13.8842 8.5225 14.0318 8.16462 14.024C7.77009 14.0155 7.01117 13.801 6.44699 13.6176C5.755 13.3926 5.20502 13.2737 5.25291 12.8917C5.27785 12.6927 5.55186 12.4892 6.07494 12.2812Z" fill="white"/>
</svg>
